<svg width="16" height="15" viewBox="0 0 16 15" fill="none" xmlns="http://www.w3.org/2000/svg">
<circle cx="8.06105" cy="7.61337" r="7.23837" fill="#C4C4C4"/>
<path d="M9.06104 3.99419C9.06104 3.4419 8.61332 2.99419 8.06104 2.99419C7.50875 2.99419 7.06104 3.4419 7.06104 3.99419L9.06104 3.99419ZM7.06104 11.2326C7.06104 11.7848 7.50875 12.2326 8.06104 12.2326C8.61332 12.2326 9.06104 11.7848 9.06104 11.2326L7.06104 11.2326ZM7.06104 3.99419L7.06104 11.2326L9.06104 11.2326L9.06104 3.99419L7.06104 3.99419Z" fill="black"/>
<path d="M4.44185 6.61337C3.88956 6.61337 3.44185 7.06109 3.44185 7.61337C3.44185 8.16566 3.88956 8.61337 4.44185 8.61337V6.61337ZM11.6802 8.61337C12.2325 8.61337 12.6802 8.16566 12.6802 7.61337C12.6802 7.06109 12.2325 6.61337 11.6802 6.61337V8.61337ZM4.44185 8.61337H11.6802V6.61337H4.44185V8.61337Z" fill="black"/>
</svg>
