<svg xmlns="http://www.w3.org/2000/svg" xmlns:xlink="http://www.w3.org/1999/xlink" width="711" height="237" viewBox="0 0 711 237">
  <defs>
    <clipPath id="clip-logo">
      <rect width="711" height="237"/>
    </clipPath>
  </defs>
  <g id="logo" clip-path="url(#clip-logo)">
    <g id="Group_209" data-name="Group 209" transform="translate(28 35.989)">
      <rect id="Rectangle_19" data-name="Rectangle 19" width="656" height="165" rx="27" transform="translate(0 0.011)" fill="#fff" opacity="0.82"/>
      <g id="Group_28" data-name="Group 28" transform="translate(70.545 24.011)">
        <text id="PASUYO" transform="translate(173.455 97)" fill="#18829c" font-size="85" font-family="SegoeUI-Bold, Segoe UI" font-weight="700"><tspan x="0" y="0">PASUYO</tspan></text>
        <g id="Group_26" data-name="Group 26" transform="translate(0 13.818)">
          <rect id="Rectangle_1" data-name="Rectangle 1" width="75" height="7" rx="3.5" transform="translate(8.455 17.182)" fill="#18829c"/>
          <rect id="Rectangle_2" data-name="Rectangle 2" width="40" height="6" rx="3" transform="translate(0.455 27.182)" fill="#18829c"/>
          <rect id="Rectangle_3" data-name="Rectangle 3" width="16" height="5" rx="2.5" transform="translate(40.455 33.182)" fill="#18829c"/>
          <g id="Group_13" data-name="Group 13" transform="translate(21.497 0)">
            <g id="Path_3" data-name="Path 3" transform="translate(0 57.636)" fill="none">
              <path d="M25.127,0A25.127,25.127,0,1,1,0,25.127,25.127,25.127,0,0,1,25.127,0Z" stroke="none"/>
              <path d="M 25.12666893005371 5.000003814697266 C 19.75063514709473 5.000003814697266 14.69639205932617 7.093536376953125 10.89496994018555 10.89496994018555 C 7.093536376953125 14.69639205932617 5.000003814697266 19.75063514709473 5.000003814697266 25.12666893005371 C 5.000003814697266 30.5027027130127 7.093536376953125 35.55694580078125 10.89496994018555 39.35836791992188 C 14.69639205932617 43.1598014831543 19.75063514709473 45.25333404541016 25.12666893005371 45.25333404541016 C 30.5027027130127 45.25333404541016 35.55694580078125 43.1598014831543 39.35836791992188 39.35836791992188 C 43.1598014831543 35.55694580078125 45.25333404541016 30.5027027130127 45.25333404541016 25.12666893005371 C 45.25333404541016 19.75063514709473 43.1598014831543 14.69639205932617 39.35836791992188 10.89496994018555 C 35.55694580078125 7.093536376953125 30.5027027130127 5.000003814697266 25.12666893005371 5.000003814697266 M 25.12666893005371 3.814697265625e-06 C 39.00374603271484 3.814697265625e-06 50.25333404541016 11.24959182739258 50.25333404541016 25.12666893005371 C 50.25333404541016 39.00374603271484 39.00374603271484 50.25333404541016 25.12666893005371 50.25333404541016 C 11.24959182739258 50.25333404541016 3.814697265625e-06 39.00374603271484 3.814697265625e-06 25.12666893005371 C 3.814697265625e-06 11.24959182739258 11.24959182739258 3.814697265625e-06 25.12666893005371 3.814697265625e-06 Z" stroke="none" fill="#18829c"/>
            </g>
            <g id="Path_4" data-name="Path 4" transform="translate(71.79 57.636)" fill="none">
              <path d="M25.127,0A25.127,25.127,0,1,1,0,25.127,25.127,25.127,0,0,1,25.127,0Z" stroke="none"/>
              <path d="M 25.12666893005371 5.000003814697266 C 19.75063514709473 5.000003814697266 14.69639205932617 7.093536376953125 10.89496994018555 10.89496994018555 C 7.093536376953125 14.69639205932617 5.000003814697266 19.75063514709473 5.000003814697266 25.12666893005371 C 5.000003814697266 30.5027027130127 7.093536376953125 35.55694580078125 10.89496994018555 39.35836791992188 C 14.69639205932617 43.1598014831543 19.75063514709473 45.25333404541016 25.12666893005371 45.25333404541016 C 30.5027027130127 45.25333404541016 35.55694580078125 43.1598014831543 39.35836791992188 39.35836791992188 C 43.1598014831543 35.55694580078125 45.25333404541016 30.5027027130127 45.25333404541016 25.12666893005371 C 45.25333404541016 19.75063514709473 43.1598014831543 14.69639205932617 39.35836791992188 10.89496994018555 C 35.55694580078125 7.093536376953125 30.5027027130127 5.000003814697266 25.12666893005371 5.000003814697266 M 25.12666893005371 3.814697265625e-06 C 39.00374603271484 3.814697265625e-06 50.25333404541016 11.24959182739258 50.25333404541016 25.12666893005371 C 50.25333404541016 39.00374603271484 39.00374603271484 50.25333404541016 25.12666893005371 50.25333404541016 C 11.24959182739258 50.25333404541016 3.814697265625e-06 39.00374603271484 3.814697265625e-06 25.12666893005371 C 3.814697265625e-06 11.24959182739258 11.24959182739258 3.814697265625e-06 25.12666893005371 3.814697265625e-06 Z" stroke="none" fill="#18829c"/>
            </g>
            <rect id="Rectangle_11" data-name="Rectangle 11" width="16.533" height="37.375" rx="8.266" transform="translate(61.889 22.224) rotate(45)" fill="#18829c"/>
            <rect id="Rectangle_12" data-name="Rectangle 12" width="11.94" height="32.147" rx="5.97" transform="translate(69.39 65.546) rotate(135)" fill="#18829c"/>
            <rect id="Rectangle_13" data-name="Rectangle 13" width="11.94" height="32.147" rx="5.97" transform="translate(56.099 60.698)" fill="#18829c"/>
            <circle id="Ellipse_7" data-name="Ellipse 7" cx="16" cy="16" r="16" transform="translate(70.958 0.182)" fill="#18829c"/>
            <rect id="Rectangle_14" data-name="Rectangle 14" width="11.94" height="32.147" rx="5.97" transform="translate(87.265 46.753) rotate(135)" fill="#18829c"/>
            <rect id="Rectangle_15" data-name="Rectangle 15" width="11.94" height="32.147" rx="5.97" transform="translate(106.121 40.987) rotate(90)" fill="#18829c"/>
          </g>
        </g>
        <text id="Help_your_near_community" data-name="Help your near community" transform="translate(178.455 23)" fill="#18829c" font-size="21" font-family="SegoeUI, Segoe UI"><tspan x="0" y="0">Help your near community</tspan></text>
      </g>
    </g>
  </g>
</svg>
