<svg xmlns="http://www.w3.org/2000/svg" width="1145.212" height="799.335" viewBox="0 0 1145.212 799.335">
  <g id="logo_bike" data-name="logo bike" transform="translate(80.014 -0.228)">
    <rect id="Rectangle_1" data-name="Rectangle 1" width="563" height="60" rx="30" transform="translate(-20.014 121.228)" fill="#18829c"/>
    <rect id="Rectangle_2" data-name="Rectangle 2" width="302" height="41" rx="20.5" transform="translate(-80.014 200.228)" fill="#18829c"/>
    <rect id="Rectangle_3" data-name="Rectangle 3" width="120" height="41" rx="20.5" transform="translate(221.986 241.228)" fill="#18829c"/>
    <g id="Group_13" data-name="Group 13" transform="translate(159.999 0.228)">
      <g id="Path_3" data-name="Path 3" transform="translate(0 426.606)" fill="none">
        <path d="M186.365,0C289.291,0,372.729,83.438,372.729,186.365S289.291,372.729,186.365,372.729,0,289.291,0,186.365,83.438,0,186.365,0Z" stroke="none"/>
        <path d="M 186.3645629882813 49.99996948242188 C 111.1728515625 49.99996948242188 49.99996948242188 111.1728515625 49.99996948242188 186.3645629882813 C 49.99996948242188 261.5562744140625 111.1728515625 322.7291564941406 186.3645629882813 322.7291564941406 C 261.5562744140625 322.7291564941406 322.7291564941406 261.5562744140625 322.7291564941406 186.3645629882813 C 322.7291564941406 111.1728515625 261.5562744140625 49.99996948242188 186.3645629882813 49.99996948242188 M 186.3645629882813 -3.0517578125e-05 C 289.2908630371094 -3.0517578125e-05 372.7291564941406 83.43826293945313 372.7291564941406 186.3645629882813 C 372.7291564941406 289.2908630371094 289.2908630371094 372.7291564941406 186.3645629882813 372.7291564941406 C 83.43826293945313 372.7291564941406 -3.0517578125e-05 289.2908630371094 -3.0517578125e-05 186.3645629882813 C -3.0517578125e-05 83.43826293945313 83.43826293945313 -3.0517578125e-05 186.3645629882813 -3.0517578125e-05 Z" stroke="none" fill="#18829c"/>
      </g>
      <g id="Path_4" data-name="Path 4" transform="translate(532.47 426.606)" fill="none">
        <path d="M186.365,0C289.291,0,372.729,83.438,372.729,186.365S289.291,372.729,186.365,372.729,0,289.291,0,186.365,83.438,0,186.365,0Z" stroke="none"/>
        <path d="M 186.3645629882813 49.99996948242188 C 111.1728515625 49.99996948242188 49.99996948242188 111.1728515625 49.99996948242188 186.3645629882813 C 49.99996948242188 261.5562744140625 111.1728515625 322.7291564941406 186.3645629882813 322.7291564941406 C 261.5562744140625 322.7291564941406 322.7291564941406 261.5562744140625 322.7291564941406 186.3645629882813 C 322.7291564941406 111.1728515625 261.5562744140625 49.99996948242188 186.3645629882813 49.99996948242188 M 186.3645629882813 -3.0517578125e-05 C 289.2908630371094 -3.0517578125e-05 372.7291564941406 83.43826293945313 372.7291564941406 186.3645629882813 C 372.7291564941406 289.2908630371094 289.2908630371094 372.7291564941406 186.3645629882813 372.7291564941406 C 83.43826293945313 372.7291564941406 -3.0517578125e-05 289.2908630371094 -3.0517578125e-05 186.3645629882813 C -3.0517578125e-05 83.43826293945313 83.43826293945313 -3.0517578125e-05 186.3645629882813 -3.0517578125e-05 Z" stroke="none" fill="#18829c"/>
      </g>
      <rect id="Rectangle_11" data-name="Rectangle 11" width="122.622" height="277.209" rx="61" transform="translate(459.028 163.961) rotate(45)" fill="#18829c"/>
      <rect id="Rectangle_12" data-name="Rectangle 12" width="88.56" height="238.432" rx="44" transform="translate(514.666 485.279) rotate(135)" fill="#18829c"/>
      <rect id="Rectangle_13" data-name="Rectangle 13" width="88.56" height="238.432" rx="44" transform="translate(416.088 449.323)" fill="#18829c"/>
      <circle id="Ellipse_7" data-name="Ellipse 7" cx="120.5" cy="120.5" r="120.5" transform="translate(522.987)" fill="#18829c"/>
      <rect id="Rectangle_14" data-name="Rectangle 14" width="88.56" height="238.432" rx="44" transform="translate(647.244 345.889) rotate(135)" fill="#18829c"/>
      <rect id="Rectangle_15" data-name="Rectangle 15" width="88.56" height="238.432" rx="44" transform="translate(787.098 303.12) rotate(90)" fill="#18829c"/>
    </g>
  </g>
</svg>
