<svg width="249" height="106" viewBox="0 0 249 106" fill="none" xmlns="http://www.w3.org/2000/svg">
<path fill-rule="evenodd" clip-rule="evenodd" d="M24.3896 36.1667L20.5855 52.9048H58.2199L55.1767 36.1667H24.3896ZM19.7793 33.891L15.458 52.9048H2.00071C0.734595 52.9048 -0.212914 54.0664 0.0415041 55.3067L9.08668 99.4019C9.27751 100.332 10.0962 101 11.0459 101H65.0041C65.9538 101 66.7725 100.332 66.9633 99.4019L76.0085 55.3067C76.2629 54.0664 75.3154 52.9048 74.0493 52.9048H63.3019L59.8721 34.0406C59.5695 32.3764 58.12 31.1667 56.4285 31.1667H23.1923C21.5581 31.1667 20.1415 32.2975 19.7793 33.891ZM25.5964 67.3334C24.4919 67.3334 23.5964 68.2288 23.5964 69.3334V84.5714C23.5964 85.676 24.4919 86.5714 25.5964 86.5714H28.8107C29.9153 86.5714 30.8107 85.676 30.8107 84.5714V69.3334C30.8107 68.2288 29.9153 67.3334 28.8107 67.3334H25.5964ZM35.6202 69.3334C35.6202 68.2288 36.5157 67.3334 37.6202 67.3334H40.8345C41.9391 67.3334 42.8345 68.2288 42.8345 69.3334V84.5714C42.8345 85.676 41.9391 86.5714 40.8345 86.5714H37.6202C36.5157 86.5714 35.6202 85.676 35.6202 84.5714V69.3334ZM49.644 67.3334C48.5395 67.3334 47.644 68.2288 47.644 69.3334V84.5714C47.644 85.676 48.5395 86.5714 49.6441 86.5714H52.8583C53.9629 86.5714 54.8583 85.676 54.8583 84.5714V69.3334C54.8583 68.2288 53.9629 67.3334 52.8583 67.3334H49.644Z" fill="black"/>
<path d="M98.1562 74.25L104 90.75L109.812 74.25H115.969V97H111.266V90.7812L111.734 80.0469L105.594 97H102.375L96.25 80.0625L96.7188 90.7812V97H92.0312V74.25H98.1562ZM126.078 90.6094L129.203 80.0938H134.047L127.25 99.625L126.875 100.516C125.865 102.724 124.198 103.828 121.875 103.828C121.219 103.828 120.552 103.729 119.875 103.531V100.109L120.562 100.125C121.417 100.125 122.052 99.9948 122.469 99.7344C122.896 99.474 123.229 99.0417 123.469 98.4375L124 97.0469L118.078 80.0938H122.938L126.078 90.6094ZM162.781 86.1406C162.781 88.3802 162.385 90.3438 161.594 92.0312C160.802 93.7188 159.667 95.0208 158.188 95.9375C156.719 96.8542 155.031 97.3125 153.125 97.3125C151.24 97.3125 149.557 96.8594 148.078 95.9531C146.599 95.0469 145.453 93.7552 144.641 92.0781C143.828 90.3906 143.417 88.4531 143.406 86.2656V85.1406C143.406 82.901 143.807 80.9323 144.609 79.2344C145.422 77.526 146.562 76.2188 148.031 75.3125C149.51 74.3958 151.198 73.9375 153.094 73.9375C154.99 73.9375 156.672 74.3958 158.141 75.3125C159.62 76.2188 160.76 77.526 161.562 79.2344C162.375 80.9323 162.781 82.8958 162.781 85.125V86.1406ZM158.031 85.1094C158.031 82.724 157.604 80.9115 156.75 79.6719C155.896 78.4323 154.677 77.8125 153.094 77.8125C151.521 77.8125 150.307 78.4271 149.453 79.6562C148.599 80.875 148.167 82.6667 148.156 85.0312V86.1406C148.156 88.4635 148.583 90.2656 149.438 91.5469C150.292 92.8281 151.521 93.4688 153.125 93.4688C154.698 93.4688 155.906 92.8542 156.75 91.625C157.594 90.3854 158.021 88.5833 158.031 86.2188V85.1094ZM175.391 84.3281C174.776 84.2448 174.234 84.2031 173.766 84.2031C172.057 84.2031 170.938 84.7812 170.406 85.9375V97H165.891V80.0938H170.156L170.281 82.1094C171.188 80.5573 172.443 79.7812 174.047 79.7812C174.547 79.7812 175.016 79.849 175.453 79.9844L175.391 84.3281ZM176.562 88.4219C176.562 85.7865 177.151 83.6875 178.328 82.125C179.516 80.5625 181.135 79.7812 183.188 79.7812C184.833 79.7812 186.193 80.3958 187.266 81.625V73H191.797V97H187.719L187.5 95.2031C186.375 96.6094 184.927 97.3125 183.156 97.3125C181.167 97.3125 179.568 96.5312 178.359 94.9688C177.161 93.3958 176.562 91.2135 176.562 88.4219ZM181.078 88.75C181.078 90.3333 181.354 91.5469 181.906 92.3906C182.458 93.2344 183.26 93.6562 184.312 93.6562C185.708 93.6562 186.693 93.0677 187.266 91.8906V85.2188C186.703 84.0417 185.729 83.4531 184.344 83.4531C182.167 83.4531 181.078 85.2188 181.078 88.75ZM203.078 97.3125C200.599 97.3125 198.578 96.5521 197.016 95.0312C195.464 93.5104 194.688 91.4844 194.688 88.9531V88.5156C194.688 86.8177 195.016 85.3021 195.672 83.9688C196.328 82.625 197.255 81.5938 198.453 80.875C199.661 80.1458 201.036 79.7812 202.578 79.7812C204.891 79.7812 206.708 80.5104 208.031 81.9688C209.365 83.4271 210.031 85.4948 210.031 88.1719V90.0156H199.266C199.411 91.1198 199.849 92.0052 200.578 92.6719C201.318 93.3385 202.25 93.6719 203.375 93.6719C205.115 93.6719 206.474 93.0417 207.453 91.7812L209.672 94.2656C208.995 95.224 208.078 95.974 206.922 96.5156C205.766 97.0469 204.484 97.3125 203.078 97.3125ZM202.562 83.4375C201.667 83.4375 200.938 83.7396 200.375 84.3438C199.823 84.9479 199.469 85.8125 199.312 86.9375H205.594V86.5781C205.573 85.5781 205.302 84.8073 204.781 84.2656C204.26 83.7135 203.521 83.4375 202.562 83.4375ZM222.109 84.3281C221.495 84.2448 220.953 84.2031 220.484 84.2031C218.776 84.2031 217.656 84.7812 217.125 85.9375V97H212.609V80.0938H216.875L217 82.1094C217.906 80.5573 219.161 79.7812 220.766 79.7812C221.266 79.7812 221.734 79.849 222.172 79.9844L222.109 84.3281ZM233.453 92.3281C233.453 91.776 233.177 91.3438 232.625 91.0312C232.083 90.7083 231.208 90.4219 230 90.1719C225.979 89.3281 223.969 87.6198 223.969 85.0469C223.969 83.5469 224.589 82.2969 225.828 81.2969C227.078 80.2865 228.708 79.7812 230.719 79.7812C232.865 79.7812 234.578 80.2865 235.859 81.2969C237.151 82.3073 237.797 83.6198 237.797 85.2344H233.281C233.281 84.5885 233.073 84.0573 232.656 83.6406C232.24 83.2135 231.589 83 230.703 83C229.943 83 229.354 83.1719 228.938 83.5156C228.521 83.8594 228.312 84.2969 228.312 84.8281C228.312 85.3281 228.547 85.7344 229.016 86.0469C229.495 86.349 230.297 86.6146 231.422 86.8438C232.547 87.0625 233.495 87.3125 234.266 87.5938C236.651 88.4688 237.844 89.9844 237.844 92.1406C237.844 93.6823 237.182 94.9323 235.859 95.8906C234.536 96.8385 232.828 97.3125 230.734 97.3125C229.318 97.3125 228.057 97.0625 226.953 96.5625C225.859 96.0521 225 95.3594 224.375 94.4844C223.75 93.599 223.438 92.6458 223.438 91.625H227.719C227.76 92.4271 228.057 93.0417 228.609 93.4688C229.161 93.8958 229.901 94.1094 230.828 94.1094C231.693 94.1094 232.344 93.9479 232.781 93.625C233.229 93.2917 233.453 92.8594 233.453 92.3281Z" fill="black"/>
<circle cx="72.7767" cy="33.6667" r="31.1667" fill="#18829C" stroke="black" stroke-width="5"/>
<rect x="41.5" y="2.5" width="108" height="62" rx="31" fill="#18829C" stroke="black" stroke-width="5"/>
</svg>
