<svg width="44" height="42" viewBox="0 0 44 42" fill="none" xmlns="http://www.w3.org/2000/svg">
<path fill-rule="evenodd" clip-rule="evenodd" d="M10.2462 15.5L8.76888 22H23.4788L22.2969 15.5H10.2462ZM7.40921 14.4459L5.69238 22H2.00071C0.734595 22 -0.212914 23.1616 0.0415041 24.4019L3.32356 40.4019C3.51438 41.3322 4.3331 42 5.28276 42H25.8149C26.7645 42 27.5832 41.3322 27.7741 40.4019L31.0561 24.4019C31.3105 23.1616 30.363 22 29.0969 22H26.5279L25.1739 14.5528C24.9578 13.3641 23.9224 12.5 22.7142 12.5H9.84704C8.67979 12.5 7.66789 13.3077 7.40921 14.4459ZM11.0488 28C10.2204 28 9.5488 28.6716 9.5488 29.5V34.5C9.5488 35.3284 10.2204 36 11.0488 36C11.8772 36 12.5488 35.3284 12.5488 34.5V29.5C12.5488 28.6716 11.8772 28 11.0488 28ZM14.5488 29.5C14.5488 28.6716 15.2204 28 16.0488 28C16.8772 28 17.5488 28.6716 17.5488 29.5V34.5C17.5488 35.3284 16.8772 36 16.0488 36C15.2204 36 14.5488 35.3284 14.5488 34.5V29.5ZM21.0488 28C20.2204 28 19.5488 28.6716 19.5488 29.5V34.5C19.5488 35.3284 20.2204 36 21.0488 36C21.8772 36 22.5488 35.3284 22.5488 34.5V29.5C22.5488 28.6716 21.8772 28 21.0488 28Z" fill="black"/>
<circle cx="30" cy="14" r="13" fill="#18829C" stroke="black" stroke-width="2"/>
</svg>
